<svg xmlns="http://www.w3.org/2000/svg" viewBox="0 15.399999618530273 148.9499969482422 38" data-asc="1.058"><g fill="#000000"><g fill="#000000" transform="translate(0, 0)"><path d="M13.70 52.35Q16.20 52.35 18.13 51.00Q20.05 49.65 20.05 46.93Q20.05 44.20 17.98 42.75Q15.90 41.30 12.07 40.23Q8.25 39.15 6.53 38.35Q4.80 37.55 3.25 36.25Q0.15 33.65 0.15 28.20Q0.15 23.75 3.32 20.55Q6.50 17.35 12 17.35Q14.65 17.35 17.53 18.13Q20.40 18.90 21.10 18.90Q21.80 18.90 22.35 17.90L22.90 17.90L23.25 28.00L22.45 28.00Q20.05 23.65 17.43 21.03Q14.80 18.40 11.72 18.40Q8.65 18.40 6.95 19.83Q5.25 21.25 5.25 23.63Q5.25 26.00 7.28 27.28Q9.30 28.55 12.25 29.35Q15.20 30.15 16.13 30.45Q17.05 30.75 18.43 31.28Q19.80 31.80 20.68 32.38Q21.55 32.95 22.53 33.83Q23.50 34.70 24.05 35.75Q25.40 38.15 25.40 41.45Q25.40 46.85 22.03 50.13Q18.65 53.40 13.15 53.40Q10.30 53.40 6.63 52.65Q2.95 51.90 2.55 51.90Q1.85 51.90 1.20 53.40L0.50 53.40L0 41.50L0.85 41.50Q3.05 45.85 6.47 49.10Q9.90 52.35 13.70 52.35ZM41.10 53.40Q34.65 53.40 31.43 50.08Q28.20 46.75 28.20 40.83Q28.20 34.90 31.82 31.75Q35.45 28.60 41.05 28.60Q52.40 28.60 51.95 40.00L37.85 40.00L37.85 41.95Q37.85 46.85 39.10 49.35Q40.35 51.85 43.45 51.85Q49.25 51.85 51.05 45.65L51.95 45.80Q51 49.40 48.53 51.40Q46.05 53.40 41.10 53.40M37.90 39.00L43.05 39.00L43.05 36.55Q43.05 32.50 42.58 31.03Q42.10 29.55 40.67 29.55Q39.25 29.55 38.58 31.13Q37.90 32.70 37.90 36.55L37.90 39.00ZM56.25 45.75L56.25 30.00L53.50 30.00L53.50 29.10L56.25 29.10L56.25 22.65L65.55 20.35L65.55 29.10L72.05 29.10L72.05 30.00L65.55 30.00L65.55 46.85Q65.55 49.20 66.03 50.30Q66.50 51.40 68 51.40Q69.50 51.40 70.63 49.90Q71.75 48.40 72.10 45.80L72.95 45.90Q72.55 49.35 70.75 51.38Q68.95 53.40 64.80 53.40Q60.65 53.40 58.45 51.75Q56.25 50.10 56.25 45.75ZM73.45 15.40L85.50 15.40L85.50 33.70Q86.30 31.40 87.95 30.00Q89.60 28.60 92.95 28.60Q100.70 28.60 100.70 36.95L100.70 52.00L103.50 52.00L103.50 52.90L89.35 52.90L89.35 52.00L91.40 52.00L91.40 35.75Q91.40 32.75 91 31.88Q90.60 31.00 89.55 31.00Q87.95 31.00 86.73 33.10Q85.50 35.20 85.50 38.20L85.50 52.00L87.65 52.00L87.65 52.90L73.45 52.90L73.45 52.00L76.20 52.00L76.20 16.30L73.45 16.30L73.45 15.40ZM122.70 20.50L123 26.70L122.35 26.70Q121.30 24.35 120.13 22.93Q118.95 21.50 118.05 21.20L118.05 38.15L120.60 38.15L120.60 39.00L109.10 39.00L109.10 38.15L111.70 38.15L111.70 21.20Q110.80 21.60 109.58 23.00Q108.35 24.40 107.35 26.70L106.70 26.70L107.05 20.50L122.70 20.50M140.15 20.50L148.95 20.50L148.95 21.35L146.95 21.35L146.95 38.25L148.95 38.25L148.95 39.00L138.85 39.00L138.85 38.25L140.80 38.25L140.80 21.40L135.85 39.00L132.65 39.00L127.30 21.75L127.30 38.25L129.50 38.25L129.50 39.00L124.55 39.00L124.55 38.25L126.25 38.25L126.25 21.35L124.55 21.35L124.55 20.50L133.60 20.50L136.95 31.90L140.15 20.50Z"/></g></g></svg>